<svg width="1400" height="400" viewBox="0 0 1400 400" fill="none" xmlns="http://www.w3.org/2000/svg">
<path d="M871.33 56.2087C876.078 55.7697 881.342 55.8257 885.542 58.3667C887.54 59.5757 889.087 61.3187 889.595 63.6447C890.034 65.6507 889.689 67.9017 888.63 69.6447C884.99 72.4157 879.892 68.5117 875.695 69.6127C852.151 75.7887 820.539 152.847 807.914 175.208C810.077 173.027 812.107 170.696 814.214 168.459C823.905 158.165 838.336 146.376 853.284 146.209C858.167 146.155 862.878 147.387 866.387 150.944C870.835 155.454 872.467 162.185 872.439 168.368C872.312 196.242 849.582 224.791 830.771 243.625C841.261 237.719 861.971 225.783 869.403 217.347C873.01 213.252 874.607 205.402 877.338 200.311C888.957 178.647 907.133 155.391 929.053 143.522C937.656 138.863 948.478 135.151 958.229 138.269C962.736 139.711 966.504 142.601 968.516 146.949C970.986 152.288 970.242 158.418 968.362 163.808C960.913 185.16 937.162 201.041 917.739 210.52C910.291 214.154 902.454 216.916 895.001 220.543C892.781 225.479 891.17 231.551 892.481 236.934C893.216 239.955 894.99 242.521 897.76 244.004C915.57 253.532 949.236 226.987 961.263 215.621C965.145 211.952 974.899 198.464 979.489 197.457C980.299 197.279 980.385 197.57 981.006 197.996C981.334 198.917 981.456 199.67 981.386 200.64C980.711 209.882 962.54 228.118 955.355 234.592C939.091 249.245 918.241 262.517 895.546 261.241C888.068 260.82 880.107 258.7 875.026 252.829C869.298 246.209 868.744 235.77 869.395 227.443C865.188 232.463 859.285 236.766 854.071 240.739C837.184 253.605 814.742 269.315 792.395 266.12C783.419 264.837 778.19 260.306 772.926 253.332L772.705 253.043C771.366 252.663 767.045 262.257 766.121 264.088C756.046 284.038 739.256 314.562 724.106 330.119C719.614 334.731 714.369 338.786 708.501 341.488C701.443 344.738 693.263 345.902 685.886 342.957C681.456 341.188 677.449 337.841 675.745 333.285C674.956 331.177 674.709 328.79 675.816 326.747C680.27 318.526 686.627 331.164 698.671 326.794C718.938 319.442 746.592 260.574 756.54 240.277C746.265 252.455 736.317 266.856 719.837 270.855C713.555 272.379 707.195 271.742 701.7 268.174C697.092 265.183 694.33 260.445 693.198 255.138C689.209 236.431 701.129 213.546 711.268 198.485C703.386 201.53 695.914 203.125 687.47 203.169C676.401 225.661 662.161 249.052 642.138 264.667C632.58 272.12 620.724 277.998 608.299 276.33C601.872 275.468 596.762 272.663 592.946 267.38C587.062 259.236 587.029 249.832 588.575 240.327C593.147 212.228 614.909 182.496 637.96 166.19C647.969 159.11 661.271 151.558 674.015 154.044C679.906 155.193 684.645 158.543 687.807 163.631C693.338 172.532 693.164 181.711 691.007 191.584C715.077 195.469 737.858 159.489 760.953 151.741C767.515 149.539 776.286 148.439 782.616 151.815C787.172 154.243 789.246 158.415 790.642 163.146C795.316 155.89 798.976 147.821 802.759 140.071C812.022 121.093 820.658 101.246 832.952 83.9997C842.506 70.5967 854.603 59.0567 871.33 56.2087ZM619.159 260.994C629.038 260.764 637.307 254.332 643.873 247.486C656.859 233.944 668.613 213.481 673.823 195.327C671.977 191.406 670.468 187.716 669.976 183.363C669.547 179.558 671.191 170.879 669.947 168.168C669.627 168.058 668.994 167.773 668.666 167.764C657.109 168.781 648.568 177.777 641.503 186.215C628.879 201.293 610.478 231.62 612.095 251.307C612.327 254.135 613.234 257.372 615.445 259.312C616.481 260.221 617.859 260.616 619.159 260.994ZM786.121 247.958C796.295 249.25 805.019 245.427 812.958 239.285C831.172 225.195 846.831 200.303 849.646 177.24C850.103 173.495 850.538 168.45 848.113 165.278C847.261 164.163 846.181 163.488 844.793 163.234C844.104 163.108 843.255 163.164 842.568 163.168C824.753 166.832 807.624 189.028 798.013 203.626C794.137 209.514 777.004 237.772 778.444 242.624C779.122 244.905 781.666 246.36 783.733 247.147C784.522 247.439 785.318 247.709 786.121 247.958ZM727.012 254.28C748.129 244.335 772.432 208.615 780.24 187.122C782.213 181.692 785.703 172.752 782.949 167.18C782.039 165.341 780.375 164.038 778.441 163.401C776.676 162.819 774.764 163.042 772.943 163.165C754.447 168.138 738.576 192.395 729.416 208.309C723.744 218.162 713.309 238.263 716.552 249.858C717.093 251.793 718.157 253.199 719.973 254.11C722.313 255.285 724.581 254.885 727.012 254.28ZM898.535 209.586C899.894 209 901.279 208.314 902.673 207.828C920.881 200.382 942.109 185.267 949.915 166.601C951.364 163.136 953.55 156.705 952.201 153.08C951.768 151.915 951.087 150.848 949.901 150.331C948.925 149.905 947.792 150.056 946.762 150.139C926.065 158.142 907.844 189.915 898.535 209.586Z" fill="white"/>
<path d="M648.397 58.7144C651.566 58.4824 654.306 58.8864 657.152 60.3494C659.814 61.7184 663.959 64.2744 664.647 67.4884C664.998 69.1314 664.697 70.8674 663.559 72.1574C661.323 74.6904 656.584 74.1374 653.52 74.5544C648.777 75.1994 644.305 77.2214 640.194 79.5984C631.78 84.4654 623.98 90.6824 616.295 96.6244C593.75 114.055 572.87 133.277 552.427 153.09C544.281 160.985 535.176 169.111 528.178 178.012C556.509 199.314 552.837 272.052 579.325 292.91C591.525 302.517 602.308 295.809 606.359 298.302C606.354 298.516 606.363 298.731 606.343 298.944C606.096 301.593 604.57 304.067 602.609 305.809C596.768 310.998 587.456 312.482 579.913 312.155C546.201 310.693 538.813 273.946 531.919 247.455C528.73 235.199 525.444 222.866 520.828 211.055C518.768 205.785 515.975 198.527 511.943 194.426C510.896 193.362 509.948 192.792 508.411 192.818C505.886 193.993 504.288 196.092 502.74 198.346C497.21 206.399 493.162 215.797 488.773 224.516C479.6 242.737 470.417 261.194 462.419 279.963C459.15 287.635 456.727 295.622 453.529 303.295C452.782 305.085 452.021 307.168 450.058 307.874C447.55 308.777 443.789 307.439 441.527 306.335C438.643 304.927 436.367 302.593 435.334 299.522C434.247 296.29 434.605 292.856 435.398 289.603C437.011 282.993 439.901 277.072 442.564 270.87C453.838 245.196 466.075 219.989 479.277 195.25C490.112 173.09 501.539 151.253 512.247 129.018C517.674 117.749 525.124 104.187 527.829 92.0104C528.368 89.5824 528.952 86.3074 527.255 84.1774C526.384 83.0844 525.074 82.5414 523.724 82.3654C513.04 80.9684 496.27 91.6854 487.949 97.7854C463.251 115.89 439.094 143.04 433.513 173.922C433.11 176.1 432.843 178.294 432.712 180.504C432.582 182.714 432.589 184.924 432.733 187.134C432.914 189.53 433.969 192.757 433.529 195.07C433.352 196.001 433.019 195.951 432.273 196.453C431.031 196.577 430.253 196.437 429.16 195.874C424.878 193.67 421.015 188.886 419.61 184.32C415.5 170.963 419.835 154.971 426.103 142.988C442.466 111.707 481.456 83.0234 514.982 72.5644C523.575 69.8834 535.917 67.1334 544.302 71.7994C547.572 73.6194 549.542 76.6294 550.57 80.1674C552.114 85.4824 551.598 91.1004 550.308 96.4044C547.581 107.62 541.957 118.674 537.073 129.108C529.195 145.941 520.913 162.83 511.78 179.018C518.989 172.404 525.207 164.389 531.848 157.19C545.471 142.473 559.333 127.984 573.433 113.724C589.675 97.2864 606.626 79.6974 626.37 67.4744C633.406 63.1194 640.2 59.9874 648.397 58.7144Z" fill="white"/>
</svg>
