<svg width="1400" height="400" viewBox="0 0 1400 400" fill="none" xmlns="http://www.w3.org/2000/svg">
<path d="M631.716 50.2645C637.802 49.5085 644.423 50.4235 650.219 52.3685C657.014 54.6495 663.516 58.7855 666.656 65.4695C669.962 72.5065 669.276 80.8185 666.765 87.9795C661.778 102.196 649.9 116.748 636.168 123.227C632.631 124.895 626.341 127.818 622.469 126.126C621.719 125.798 621.823 125.469 621.593 124.763C623.381 119.559 630.019 115.141 633.671 111.032C636.364 108.003 638.782 104.559 641.051 101.206C646.136 93.6935 652.191 81.6245 650.143 72.2665C649.477 69.2265 647.72 66.6445 644.992 65.1015C639.312 61.8905 630.871 63.3825 624.912 65.2615C602.626 72.2885 583.614 91.5205 573.072 111.918C568.601 120.571 563.797 133.799 567.186 143.503C573.861 162.615 597.124 147.075 610.045 153.414C611.39 154.074 612.681 155.075 612.981 156.636C613.297 158.283 612.652 160.249 611.803 161.651C609.105 166.103 594.39 167.548 589.521 168.857C560.323 176.707 532.441 194.338 517.355 221.089C511.678 231.156 505.922 245.353 509.494 257.053C509.592 257.381 509.699 257.705 509.815 258.027C509.93 258.35 510.053 258.669 510.185 258.985C510.315 259.301 510.454 259.614 510.601 259.923C510.748 260.232 510.903 260.537 511.065 260.839C511.226 261.14 511.395 261.437 511.573 261.73C511.749 262.022 511.933 262.31 512.125 262.594C512.316 262.878 512.514 263.156 512.72 263.43C512.924 263.704 513.136 263.972 513.355 264.235C513.573 264.499 513.798 264.756 514.03 265.008C514.261 265.26 514.499 265.505 514.743 265.745C514.987 265.986 515.236 266.22 515.492 266.448C515.747 266.675 516.008 266.896 516.275 267.11C516.541 267.325 516.812 267.533 517.09 267.733C517.366 267.935 517.648 268.129 517.935 268.316C518.221 268.502 518.512 268.682 518.808 268.855C519.103 269.027 519.403 269.191 519.707 269.349C553.426 287.17 618.876 224.845 639.839 202.367C646.655 195.058 651.923 186.745 657.851 178.746C672.563 158.897 691.71 139.058 715.88 131.592C723.861 129.127 734.543 128.617 742.054 132.858C747.786 136.095 751.319 141.039 752.917 147.386C754.345 153.056 753.929 158.676 752.654 164.331C748.985 180.598 740.104 196.414 732.586 211.207C728.023 220.183 723.59 229.293 718.374 237.912C726.756 231.893 750.542 217.406 754.705 209.581C756.272 206.637 757.177 202.931 758.3 199.769C759.975 195.089 762.021 190.578 764.438 186.235C777.87 162.198 805.35 130.84 832.384 123.386C838.317 121.75 846.744 120.768 852.22 124.084C857.528 127.298 858.53 133.66 859.911 139.19C862.734 135.253 865.596 131.557 869.612 128.759C873.161 126.286 877.41 124.973 881.719 125.891C883.521 126.274 885.535 127.167 886.437 128.881C887.151 130.238 887.053 131.83 886.436 133.19C883.289 140.124 877.834 146.544 873.63 152.93C862.785 169.403 848.826 192.65 844.93 211.956C844.266 215.249 843.369 219.825 845.501 222.753C846.665 224.352 848.441 225.091 850.354 225.339C861.635 226.802 877.741 214.233 886.186 207.456C893.346 201.612 899.774 195.037 905.916 188.149C908.298 185.477 910.357 182.379 912.93 179.907C914.048 178.833 914.991 178.219 916.6 178.269L917.222 179.149C917.26 180.453 917.216 181.673 916.861 182.938C915.63 187.316 912.57 191.542 909.967 195.206C898.803 210.924 883.709 226.354 866.732 235.724C857.755 240.679 845.949 244.49 835.747 241.261C830.979 239.752 827.154 236.588 824.985 232.06C820.219 222.116 823.733 207.78 827.08 197.93C820.34 207.856 812.491 217.37 804.205 226.042C795.355 235.306 782.822 246.798 769.132 246.837C764.799 246.849 760.265 245.731 757.157 242.537C751.937 237.173 752.353 229.014 752.454 222.107C745.063 229.687 736.18 236.394 727.67 242.659C722.608 246.385 716.783 249.977 712.547 254.665C706.545 261.309 701.882 269.843 697.042 277.378C680.417 303.258 660.817 337.041 630.793 348.543C623.963 351.159 616.945 351.15 610.246 348.068C606.223 346.216 603.215 343.223 601.802 338.944C594.218 315.983 650.77 280.697 666.768 269.805C672.559 265.863 679.69 261.95 684.584 256.956C691.394 250.008 703.797 222.35 708.635 212.539C705.273 215.767 702.393 219.607 699.383 223.162C692.808 230.928 685.833 238.76 677.688 244.912C670.553 250.302 660.461 255.694 651.213 254.191C646.862 253.484 642.802 251.193 640.221 247.584C634.187 239.147 636.724 226.461 638.082 216.889C613.51 244.329 586.371 274.663 550.758 287.511C536.02 292.829 517.848 294.623 503.333 287.602C494.421 283.292 487.695 276.084 484.459 266.683C479.578 252.501 482.433 235.271 488.91 222.069C503.254 192.835 532.83 172.675 563.033 162.509C559.199 161.58 556.285 160.244 553.18 157.74C546.512 152.362 543.183 145.084 542.341 136.633C540.636 119.521 549.151 103.428 559.741 90.6485C576.881 69.9635 604.717 52.7545 631.716 50.2645ZM669.927 233.992C691.503 224.963 722.842 182.513 731.836 160.315C733.383 156.497 735.649 150.54 733.866 146.568C733.085 144.829 731.43 143.656 729.651 143.081C728.292 142.641 726.899 142.562 725.484 142.651C702.953 148.236 684.244 174.865 672.799 193.845C667.764 202.194 658.317 219.576 660.809 229.729C661.2 231.32 662.069 232.646 663.523 233.446C665.615 234.596 667.671 234.582 669.927 233.992ZM784.314 226.771C804.528 217.556 841.064 170.247 849.228 148.917C850.114 146.601 851.248 143.039 850.236 140.587C849.518 138.846 848.173 137.659 846.398 137.058C845.162 136.639 843.836 136.618 842.549 136.691C824.766 139.768 805.971 163.789 795.82 178.162C788.904 187.956 773.973 211.407 776.162 223.115C776.427 224.533 777.143 225.742 778.379 226.526C780.437 227.831 782.093 227.3 784.314 226.771ZM620.041 333.871C630.25 333.366 639.402 323.681 645.826 316.537C656.799 304.336 665.127 290.381 674.214 276.808L673.501 276.389L672.948 276.884C659.626 288.702 620.455 310.738 618.97 329.651C618.83 331.432 618.921 332.463 620.041 333.871Z" fill="white"/>
</svg>
