<?xml version="1.0" encoding="utf-8" ?>
<svg xmlns="http://www.w3.org/2000/svg" xmlns:xlink="http://www.w3.org/1999/xlink" width="1400" height="400">
	<path fill="white" d="M406.988 98.1101C410.578 97.9303 414.281 97.8707 417.872 98.0195C423.112 98.2365 429.45 100.652 433.013 104.627C434.141 105.886 434.771 107.01 434.678 108.722C434.283 109.627 433.911 110.334 433.093 110.931C429.124 113.833 421.783 107.628 417.036 106.882C408.088 105.475 393.242 112.298 386.075 117.589C361.339 135.848 347.954 172.628 343.514 201.882C353.587 200.085 418.833 185.911 423.533 186.778C424.901 187.031 424.953 187.104 425.734 188.24C424.385 194.48 384.638 215.239 377.359 220.957C374.947 222.851 373.067 224.485 372.702 227.611C380.416 234.067 444.269 190.89 455.312 186.164C456.891 185.489 458.875 185.175 460.599 185.296C462.481 185.427 463.518 185.934 464.739 187.297C463.184 198.029 409.762 218.677 406.466 227.987C408.823 229.287 413.08 227.714 415.507 226.831C421.943 224.489 427.883 221.054 433.979 217.977L469.157 200.19C477.33 196.03 485.53 191.356 494.171 188.264C499.608 186.318 505.167 185.323 510.937 185.346C517.173 185.372 528.779 184.021 533.234 188.957C534.586 190.454 534.53 191.352 534.523 193.235C533.856 194.951 532.875 195.756 531.394 196.733C522.477 202.615 512.2 207.251 502.862 212.561C493.17 218.072 483.225 225.106 473.076 229.612C487.64 227.771 502.339 222.018 516.317 217.527C532.867 212.21 554.223 206.561 569.511 198.842C579.966 193.564 589.964 186.751 599.999 180.695Q622.681 167.112 645.725 154.151C654.819 149.026 663.953 143.539 673.685 139.711C681.797 136.52 694.073 132.206 702.477 135.959C704.547 136.884 706.258 138.354 707.041 140.535C707.812 142.683 707.514 144.817 706.582 146.851C702.688 155.355 690.298 160.823 682.385 165.14C660.568 177.041 638.458 187.313 614.987 195.512C599.637 200.874 583.771 205.111 568.564 210.801C563.061 212.86 558.552 216.953 552.984 219.025L605.592 219C615.74 218.928 626.929 217.898 636.975 219.062C639.434 219.346 641.688 219.879 643.584 221.56C644.314 223.343 644.133 223.687 643.64 225.55C642.229 226.846 641.546 227.397 639.581 227.654C632.587 228.569 624.043 227.642 616.9 227.646L563.11 227.673C556.309 227.748 547.364 226.239 540.865 228.077C532.699 230.387 518.98 240.366 511.197 245.118L448.619 283.68C443.186 287.056 433.908 294.27 427.966 295.829C426.142 296.308 423.214 295.798 421.585 294.85C420.435 294.181 420.435 293.755 420.113 292.559C420.779 290.083 422.735 288.339 424.715 286.839C433.343 280.302 443.795 275.155 453.126 269.552L509.353 235.491C513.591 232.902 525.844 226.705 528.242 222.963C528.314 222.852 528.38 222.737 528.449 222.624C524.227 225.741 474.318 240.6 467.558 241.489C465.122 241.81 462.098 241.82 460.094 240.209C458.645 239.044 458.059 237.308 457.938 235.497C457.733 232.454 458.976 229.614 460.93 227.334C469.068 217.838 495.292 205.677 506.934 199.243C509.645 197.745 514.042 195.986 515.986 193.699C516.05 193.623 516.112 193.545 516.175 193.468C512.958 193.27 509.498 192.911 506.327 193.575C497.305 195.461 488.86 200.471 480.719 204.618Q459.724 215.313 438.844 226.234C430.288 230.688 421.601 235.814 412.586 239.239C408.87 240.651 404.748 241.764 400.746 241.784C398.718 241.795 396.073 241.394 394.655 239.812C392.87 237.82 393.518 235.547 393.749 233.095C383.763 234.086 374.144 245.154 361.901 242.247C359.019 241.562 355.895 239.492 354.393 236.901C353.35 235.103 353.169 233.126 353.692 231.133C356.619 219.986 384.566 205.311 394.165 199.453C376.879 203.902 359.646 208.372 342.041 211.397C338.777 227.453 333.524 245.121 323.683 258.475C307.532 280.392 277.54 291.328 251.545 295.197C229.498 298.479 191.201 298.872 172.41 284.767C167.364 280.98 163.791 275.816 162.897 269.492C161.824 261.907 164.417 254.134 168.976 248.097C174.271 241.085 182.048 235.931 190.018 232.387C217.387 220.216 250.65 216.747 280.056 212.086C296.646 209.457 313.245 206.403 329.885 204.151C334.648 177.825 343.886 150.641 359.793 128.849C371.59 112.688 386.984 101.237 406.988 98.1101ZM184.949 277.034C212.162 289.599 251.062 285.578 278.458 275.519C296.403 268.931 311.106 257.547 319.206 239.947C321.545 234.864 327.857 219.203 327.093 214.519L326.706 214.27Q304.401 217.9 282.06 221.301C255.457 225.351 195.534 231.955 179.451 254.352C177.053 257.692 175.383 261.986 176.019 266.153C176.684 270.512 179.846 273.533 183.288 275.953C183.829 276.334 184.371 276.71 184.949 277.034ZM609.2 187.011C624.335 182.865 686.374 158.264 693.637 146.276C693.894 145.852 694.059 145.393 694.192 144.919L693.404 143.983C692.232 143.888 691.047 143.727 689.879 143.931C669.092 151.177 649.979 162.614 631.044 173.668C623.909 177.832 616.584 182.787 609.083 186.171L609.981 185.589C609.275 186.684 609.276 187.066 607.974 187.382L607.57 187.005L606.838 187.638L607.29 188.004L609.2 187.011Z"/>
	<path fill="white" d="M1103.37 134.359C1108.91 133.796 1114.65 133.291 1119.84 135.733C1121.78 136.642 1123.62 137.839 1124.3 139.985C1124.94 141.978 1124.26 144.086 1123.31 145.862C1114.02 163.265 1050.69 186.825 1031.16 192.735C1023.19 195.148 1014.19 195.55 1006.51 198.576C995.312 202.986 986.197 212.514 974.693 216.092C988.538 216.016 1024.79 215.671 1036.34 211.934C1041.62 210.225 1046.42 205.239 1051.02 202.128C1065.12 192.589 1087.23 181.071 1104.87 182.901C1110.36 183.471 1116.2 186.185 1119.7 190.556C1120.76 191.881 1121.44 193.302 1121.18 195.039C1119.44 206.836 1075.24 215.906 1065.64 217.649C1061.87 218.334 1047.16 219.48 1045 221.249C1043.33 222.614 1042.67 224.603 1042.51 226.671C1042.89 227.57 1043.03 228.292 1043.89 228.828C1048.66 231.786 1094.51 221.184 1102.93 219.133C1107.39 217.051 1112.19 211.528 1116.27 208.452Q1123.43 203.045 1131.15 198.463Q1138.87 193.88 1147.04 190.178C1157.05 185.683 1173.37 179.369 1184.19 183.566C1187.75 184.946 1191.41 188.151 1192.86 191.742C1193.54 193.43 1193.46 195.328 1192.72 196.983C1185.78 212.631 1136.24 217.64 1120.73 223.788C1118.53 224.66 1116.95 225.559 1115.99 227.766L1116.89 228.78C1126.69 232.8 1151.68 226.163 1162.21 223.539C1167.14 222.31 1173.36 219.988 1178.43 220.277C1179.97 220.365 1180.21 220.494 1181.19 221.588L1180.81 223.028C1178.8 225.297 1175.5 226.17 1172.71 227.125C1158.44 232.018 1115.19 243.94 1102.6 237.602C1098.82 235.701 1099.06 233.096 1097.86 229.583C1097.53 229.437 1096.95 229.073 1096.61 229.03C1094.76 228.789 1086.57 231.326 1084.16 231.841C1069.45 234.982 1052.88 239.589 1037.83 239.5C1034.04 239.478 1029.04 238.882 1026.29 235.951C1021.87 231.236 1026.44 227.613 1026.47 222.878C1026.47 222.789 1026.47 222.699 1026.47 222.61C1004.42 224.04 982.446 225.121 960.339 225.226C955.401 230.382 939.383 238.284 932.693 242.288L872.524 278.605C863.445 284.072 854.262 290.862 844.796 295.511Q844.41 295.699 844.007 295.848Q843.603 295.997 843.188 296.105Q842.772 296.213 842.347 296.279Q841.923 296.346 841.493 296.37Q841.065 296.394 840.635 296.375Q840.206 296.356 839.781 296.295Q839.355 296.233 838.938 296.13Q838.521 296.027 838.116 295.883C835.947 295.115 833.962 293.573 832.945 291.501C833.204 289.699 833.906 289.237 835.336 288.161C843.762 281.827 854.277 276.691 863.392 271.29C880.117 261.38 896.715 251.164 913.508 241.391C918.789 238.318 936.047 229.685 939.401 225.385C939.479 225.285 939.553 225.182 939.63 225.08C925.43 226.275 910.499 225.254 896.238 225.181C890.492 225.152 884.105 224.665 878.456 225.809C871.877 227.142 863.513 233.718 857.735 237.18Q825.859 256.248 794.223 275.71C785.54 281.071 769.38 292.743 760.435 295.762C758.136 296.537 754.84 297.112 752.623 295.895C750.963 294.983 750.631 293.831 750.165 292.162C750.598 290.52 751.428 289.529 752.792 288.544C760.444 283.022 769.973 278.552 778.184 273.714L839.463 237.83C844.676 234.786 856.115 229.537 859.955 225.347C860.038 225.256 860.119 225.162 860.201 225.069C856.494 225.273 851.848 225.994 848.228 225.209C846.552 224.846 845.69 224.439 844.778 223.019L845.387 221.484C849.765 217.366 855.342 216.069 861.157 216.164L875.025 216.153C879.406 214.744 899.083 203.821 901.757 200.269L863.074 200.356C862.756 201.284 862.063 201.766 861.33 202.359C845.192 215.409 798.066 244.287 777.519 241.895C775.369 241.645 773.306 240.907 771.981 239.094C767.59 233.086 774.344 228.657 775.193 223.225C775.214 223.097 775.229 222.968 775.247 222.839C775.115 222.966 774.968 223.119 774.818 223.23C768.94 227.583 730.461 239.381 722.053 241.038C717.032 242.027 711.492 242.84 706.429 241.867C702.556 241.123 699.091 239.175 696.89 235.831C695.304 233.42 694.842 230.731 695.462 227.922C698.848 212.581 730.388 191.365 742.909 183.459C774.781 163.335 849.291 127.911 885.632 136.255C888.988 137.025 893.252 138.276 895.184 141.345C895.367 142.155 895.462 142.885 895.151 143.675C894.342 145.723 892.28 147.325 890.32 148.131C887.691 147.917 886.578 146.451 884.506 144.926C880.295 141.828 871.79 143.4 866.839 144.164C826.891 150.328 739.874 190.414 716.685 222.295C715.112 224.459 714.325 225.968 714.751 228.648C721.91 236.126 789.383 209.972 799.48 205.51C806.46 202.425 812.556 197.552 819.775 194.94C822.609 193.915 825.946 193.109 828.969 193.688C830.734 194.025 831.302 194.491 832.241 195.903C831.852 202.779 796.413 213.183 790.009 226.422C789.47 227.535 789.412 227.64 789.807 228.787C790.211 228.941 790.626 229.06 791.061 229.074C800.504 229.372 838.439 207.973 846.184 200.609C843.692 199.399 841.075 200.307 838.702 198.146C837.135 196.718 835.865 195.709 835.494 193.478C835.757 192.294 836.105 191.404 837.036 190.585C842.559 185.723 854.393 185.053 861.58 185.384C872.665 185.895 867.525 188.289 870.95 192.042C876.39 192.968 913.118 192.275 917.785 190.759C925.337 188.305 933.364 181.874 940.258 177.759Q962.14 164.495 984.539 152.124C992.342 147.831 1000.01 143.325 1008.31 140.006C1016.83 136.596 1029.44 132.29 1038.29 136.186C1040.23 137.045 1041.84 138.385 1042.58 140.429C1043.41 142.686 1042.82 145.252 1041.78 147.345C1033.47 164.144 969.176 187.898 950.024 193.553C941.074 196.195 931.38 196.736 922.655 199.961C911.781 203.98 902.711 212.458 891.64 216.194L954.883 216.153C959.626 214.402 979.714 203.279 982.262 199.679C978.313 199.297 973.586 199.208 970.425 196.523C969.699 194.763 969.857 194.471 970.365 192.638C973.127 189.734 994.371 192.432 1001.49 188.911C1005.79 186.783 1009.63 183.707 1013.8 181.325C1041.55 165.462 1073.07 143.056 1103.37 134.359ZM1033.03 183.205C1046.17 179.881 1103.36 156.864 1109.47 146.526C1110.04 145.555 1109.88 145.254 1109.63 144.188C1108.53 143.983 1107.58 143.826 1106.45 143.931C1095.76 147.346 1035.05 177.802 1031.24 183.781C1031.82 183.625 1032.52 183.507 1033.03 183.205ZM954.427 183.021C967.333 180.131 1022.32 156.973 1028.38 147.612C1028.99 146.674 1028.94 146.264 1028.79 145.187C1027.41 145.024 1026.27 145.072 1024.9 145.299Q1015.01 148.638 1005.66 153.27C999.777 156.115 954.436 180.442 953.35 182.552C953.102 183.032 953.115 183.75 953.086 184.281L951.776 183.661L952.014 183.944C952.895 183.737 953.721 183.624 954.427 183.021ZM1136.42 210.94C1147.4 208.854 1172.04 202.817 1179.47 194.821L1179.83 193.239C1178.43 191.905 1177.49 191.397 1175.47 191.424C1173.63 191.449 1171.77 191.635 1169.93 191.795C1160.05 195.381 1150.75 199.84 1141.61 205.051C1137.03 207.662 1132.16 211.433 1127.29 213.347C1130.26 212.712 1133.7 212.289 1136.42 210.94ZM1067.23 207.741C1074.96 206.338 1101.37 201.526 1105.79 195.232C1106.42 194.342 1106.26 193.849 1106.2 192.832C1104.07 191.029 1102.18 191.022 1099.43 191.111C1088.29 193.43 1078.9 198.661 1069.1 204.264C1067.31 205.283 1063.69 206.835 1062.61 208.474C1064.26 208.414 1065.66 208.299 1067.23 207.741Z"/>
	<path fill="white" d="M1206.01 141.736Q1206.42 141.628 1206.84 141.54Q1207.26 141.453 1207.68 141.385Q1208.11 141.318 1208.53 141.272Q1208.96 141.226 1209.38 141.2Q1209.81 141.174 1210.24 141.17Q1210.66 141.165 1211.09 141.181Q1211.52 141.197 1211.94 141.234Q1212.37 141.271 1212.79 141.329Q1213.22 141.387 1213.64 141.465Q1214.06 141.544 1214.47 141.643Q1214.89 141.741 1215.3 141.86Q1215.71 141.979 1216.12 142.118Q1216.52 142.257 1216.92 142.416Q1217.31 142.575 1217.7 142.752Q1218.09 142.93 1218.47 143.127Q1218.85 143.323 1219.22 143.538Q1219.59 143.753 1219.95 143.986Q1220.31 144.218 1220.66 144.468Q1221 144.718 1221.34 144.985Q1221.67 145.251 1221.99 145.534Q1222.31 145.816 1222.62 146.114Q1222.93 146.412 1223.22 146.725Q1223.51 147.037 1223.79 147.364Q1224.06 147.69 1224.32 148.03Q1224.58 148.369 1224.83 148.721Q1225.07 149.073 1225.3 149.436Q1225.52 149.8 1225.73 150.174Q1225.94 150.547 1226.13 150.931Q1226.31 151.315 1226.48 151.707Q1226.65 152.099 1226.81 152.5Q1226.96 152.9 1227.09 153.307Q1227.22 153.714 1227.33 154.127Q1227.44 154.54 1227.53 154.958Q1227.62 155.376 1227.69 155.798Q1227.76 156.22 1227.81 156.644Q1227.86 157.069 1227.89 157.496Q1227.92 157.923 1227.93 158.35Q1227.94 158.778 1227.92 159.205Q1227.91 159.633 1227.88 160.059Q1227.84 160.486 1227.79 160.91Q1227.73 161.334 1227.66 161.755Q1227.58 162.176 1227.49 162.593Q1227.39 163.01 1227.27 163.421Q1227.16 163.833 1227.02 164.238Q1226.89 164.644 1226.73 165.042Q1226.58 165.441 1226.4 165.831Q1226.23 166.221 1226.03 166.603Q1225.84 166.984 1225.63 167.355Q1225.41 167.727 1225.18 168.087Q1224.95 168.448 1224.71 168.797Q1224.46 169.146 1224.2 169.482Q1223.93 169.818 1223.65 170.141Q1223.37 170.465 1223.08 170.774Q1222.78 171.083 1222.47 171.377Q1222.16 171.671 1221.83 171.95Q1221.51 172.229 1221.17 172.491Q1220.84 172.754 1220.49 172.999Q1220.14 173.245 1219.77 173.474Q1219.41 173.702 1219.04 173.912Q1218.67 174.123 1218.29 174.315Q1217.9 174.507 1217.51 174.68Q1217.12 174.853 1216.72 175.007Q1216.32 175.161 1215.92 175.295Q1215.51 175.429 1215.1 175.543Q1214.68 175.658 1214.26 175.753Q1213.84 175.847 1213.42 175.921Q1212.99 175.995 1212.56 176.047Q1212.13 176.1 1211.7 176.131Q1211.27 176.163 1210.84 176.173Q1210.41 176.183 1209.98 176.172Q1209.55 176.161 1209.12 176.129Q1208.69 176.096 1208.26 176.043Q1207.83 175.989 1207.41 175.914Q1206.98 175.84 1206.56 175.744Q1206.14 175.649 1205.72 175.533Q1205.31 175.417 1204.9 175.28Q1204.49 175.144 1204.09 174.987Q1203.68 174.831 1203.29 174.654Q1202.9 174.478 1202.51 174.283Q1202.13 174.088 1201.75 173.873Q1201.38 173.659 1201.01 173.427Q1200.65 173.195 1200.3 172.945Q1199.94 172.695 1199.61 172.428Q1199.27 172.161 1198.94 171.877Q1198.61 171.594 1198.3 171.295Q1197.99 170.996 1197.7 170.681Q1197.4 170.367 1197.12 170.039Q1196.84 169.711 1196.58 169.369Q1196.31 169.027 1196.07 168.673Q1195.82 168.318 1195.59 167.952Q1195.36 167.586 1195.15 167.209Q1194.94 166.832 1194.75 166.446Q1194.56 166.059 1194.38 165.663Q1194.21 165.267 1194.06 164.863Q1193.91 164.46 1193.77 164.049Q1193.64 163.638 1193.53 163.221Q1193.42 162.804 1193.33 162.382Q1193.24 161.96 1193.16 161.534Q1193.09 161.108 1193.04 160.679Q1192.99 160.25 1192.97 159.819Q1192.94 159.389 1192.93 158.957Q1192.92 158.525 1192.94 158.094Q1192.95 157.662 1192.99 157.232Q1193.02 156.802 1193.08 156.374Q1193.14 155.945 1193.22 155.521Q1193.29 155.096 1193.39 154.676Q1193.49 154.255 1193.61 153.84Q1193.73 153.425 1193.87 153.017Q1194.01 152.608 1194.17 152.207Q1194.33 151.806 1194.51 151.413Q1194.68 151.02 1194.88 150.636Q1195.08 150.253 1195.3 149.88Q1195.51 149.506 1195.75 149.144Q1195.98 148.782 1196.24 148.432Q1196.49 148.082 1196.76 147.744Q1197.03 147.407 1197.31 147.083Q1197.6 146.76 1197.9 146.451Q1198.2 146.142 1198.52 145.848Q1198.84 145.554 1199.17 145.276Q1199.5 144.998 1199.84 144.737Q1200.18 144.476 1200.54 144.232Q1200.9 143.988 1201.26 143.762Q1201.63 143.535 1202.01 143.328Q1202.39 143.12 1202.78 142.931Q1203.16 142.742 1203.56 142.573Q1203.96 142.403 1204.36 142.254Q1204.77 142.104 1205.18 141.975Q1205.59 141.845 1206.01 141.736ZM1213.75 170.336Q1214.14 170.229 1214.51 170.098Q1214.89 169.966 1215.26 169.809Q1215.62 169.653 1215.98 169.472Q1216.34 169.292 1216.68 169.088Q1217.02 168.884 1217.35 168.658Q1217.68 168.432 1218 168.185Q1218.31 167.938 1218.61 167.67Q1218.9 167.403 1219.18 167.116Q1219.46 166.829 1219.72 166.525Q1219.98 166.221 1220.22 165.9Q1220.45 165.579 1220.67 165.243Q1220.89 164.907 1221.08 164.557Q1221.27 164.208 1221.44 163.846Q1221.61 163.485 1221.76 163.113Q1221.9 162.741 1222.02 162.36Q1222.14 161.979 1222.24 161.591Q1222.34 161.203 1222.4 160.809Q1222.47 160.416 1222.52 160.019Q1222.56 159.621 1222.58 159.222Q1222.59 158.823 1222.58 158.423Q1222.57 158.024 1222.54 157.626Q1222.5 157.228 1222.44 156.833Q1222.38 156.439 1222.29 156.049Q1222.2 155.659 1222.09 155.276Q1221.97 154.894 1221.83 154.519Q1221.69 154.144 1221.53 153.78Q1221.37 153.415 1221.18 153.063Q1220.99 152.71 1220.78 152.37Q1220.57 152.03 1220.34 151.705Q1220.11 151.38 1219.85 151.071Q1219.6 150.763 1219.33 150.471Q1219.05 150.18 1218.76 149.907Q1218.47 149.634 1218.16 149.382Q1217.85 149.129 1217.52 148.898Q1217.2 148.666 1216.86 148.457Q1216.52 148.247 1216.17 148.061Q1215.81 147.874 1215.45 147.711Q1215.08 147.549 1214.71 147.41Q1214.33 147.272 1213.95 147.159Q1213.57 147.046 1213.18 146.958Q1212.79 146.871 1212.39 146.81Q1212 146.748 1211.6 146.713Q1211.2 146.678 1210.8 146.669Q1210.4 146.66 1210 146.678Q1209.61 146.695 1209.21 146.74Q1208.81 146.784 1208.42 146.854Q1208.03 146.924 1207.64 147.02Q1207.25 147.116 1206.87 147.238Q1206.59 147.327 1206.32 147.429Q1206.04 147.532 1205.78 147.647Q1205.51 147.763 1205.25 147.891Q1204.98 148.019 1204.73 148.16Q1204.47 148.301 1204.22 148.454Q1203.97 148.607 1203.73 148.772Q1203.49 148.937 1203.26 149.114Q1203.03 149.29 1202.8 149.478Q1202.58 149.666 1202.36 149.864Q1202.15 150.062 1201.94 150.27Q1201.74 150.479 1201.55 150.697Q1201.35 150.915 1201.17 151.142Q1200.98 151.369 1200.81 151.605Q1200.64 151.841 1200.48 152.085Q1200.32 152.329 1200.17 152.58Q1200.02 152.832 1199.88 153.09Q1199.75 153.348 1199.62 153.613Q1199.5 153.878 1199.39 154.148Q1199.28 154.418 1199.18 154.694Q1199.08 154.969 1199 155.249Q1198.91 155.529 1198.84 155.812Q1198.77 156.096 1198.72 156.382Q1198.66 156.669 1198.62 156.958Q1198.58 157.247 1198.55 157.538Q1198.52 157.829 1198.5 158.12Q1198.49 158.412 1198.49 158.704Q1198.49 158.996 1198.5 159.288Q1198.52 159.58 1198.54 159.871Q1198.57 160.162 1198.61 160.451Q1198.66 160.74 1198.71 161.027Q1198.77 161.314 1198.84 161.597Q1198.91 161.881 1198.99 162.161Q1199.07 162.441 1199.17 162.717Q1199.27 162.992 1199.38 163.263Q1199.49 163.533 1199.61 163.798Q1199.73 164.063 1199.87 164.322Q1200.01 164.581 1200.15 164.832Q1200.3 165.084 1200.46 165.328Q1200.62 165.573 1200.79 165.809Q1200.97 166.045 1201.15 166.273Q1201.33 166.5 1201.53 166.719Q1201.72 166.938 1201.92 167.146Q1202.13 167.355 1202.34 167.554Q1202.56 167.753 1202.78 167.941Q1203 168.129 1203.24 168.306Q1203.47 168.483 1203.71 168.649Q1203.95 168.814 1204.2 168.968Q1204.45 169.122 1204.7 169.263Q1204.96 169.405 1205.22 169.534Q1205.48 169.663 1205.75 169.779Q1206.02 169.895 1206.29 169.998Q1206.56 170.101 1206.84 170.191Q1207.12 170.28 1207.4 170.356Q1207.68 170.432 1207.97 170.495Q1208.25 170.557 1208.54 170.605Q1208.83 170.654 1209.12 170.688Q1209.41 170.722 1209.7 170.743Q1209.99 170.763 1210.29 170.769Q1210.58 170.775 1210.87 170.767Q1211.16 170.759 1211.45 170.737Q1211.74 170.715 1212.03 170.679Q1212.32 170.643 1212.61 170.592Q1212.9 170.542 1213.18 170.478Q1213.47 170.414 1213.75 170.336Z"/>
	<path fill="white" d="M1202.73 150.769C1205.63 150.159 1211.75 149.4 1214.54 150.326C1219.61 152.006 1215.28 159.818 1217.1 163.306C1217.51 164.09 1217.76 164.911 1218.04 165.747L1214.67 166.195C1214.54 166.187 1214.42 166.187 1214.3 166.171C1212.06 165.872 1211.19 163.759 1209.97 162.063L1209.36 162.019L1208.73 165.288C1207.73 166.377 1207.59 166.495 1206.12 166.604C1201.35 162.962 1205.3 155.968 1202.81 150.941C1202.78 150.883 1202.75 150.826 1202.73 150.769Z"/>
</svg>
