<svg xmlns="http://www.w3.org/2000/svg" width="180" height="100" viewBox="0 0 180 100" fill="none">
  <path d="M24.19 63.76V18.24H30.11V24.48H30.43C30.91 22.24 31.87 20.57 33.31 19.47C34.75 18.34 36.55 17.78 38.71 17.78C41.07 17.78 42.95 18.40 44.35 19.64C45.75 20.88 46.51 22.67 46.63 25.00H46.95C47.43 22.72 48.47 21.00 50.07 19.83C51.67 18.66 53.67 18.08 56.07 18.08C59.23 18.08 61.65 19.06 63.33 21.03C65.01 22.99 65.85 25.95 65.85 29.92V63.76H59.59V30.65C59.59 28.02 58.95 26.14 57.67 25.01C56.39 23.85 54.75 23.27 52.75 23.27C50.55 23.27 48.81 23.97 47.53 25.38C46.25 26.76 45.61 28.55 45.61 30.77V63.76H39.35V30.42C39.35 28.14 38.73 26.41 37.49 25.25C36.25 24.05 34.58 23.46 32.50 23.46C31.14 23.46 29.91 23.78 28.83 24.42C27.78 25.06 26.95 25.97 26.35 27.16C25.75 28.34 25.45 29.74 25.45 31.38V63.76H24.19Z" fill="white"/>
  <path d="M75.48 63.76V18.24H81.58V25.09H81.94C82.34 24.11 82.93 23.11 83.70 22.10C84.48 21.08 85.55 20.24 86.90 19.58C88.28 18.90 90.03 18.56 92.15 18.56C95.09 18.56 97.67 19.30 99.89 20.78C102.11 22.26 103.81 24.39 105.00 27.19C106.19 29.99 106.78 33.33 106.78 37.23C106.78 41.09 106.19 44.43 105.00 47.24C103.83 50.06 102.14 52.21 99.94 53.72C97.73 55.22 95.17 55.97 92.27 55.97C90.19 55.97 88.46 55.64 87.06 54.98C85.66 54.32 84.58 53.49 83.82 52.50C83.05 51.51 82.46 50.51 82.06 49.53H81.58V73.36H75.48V63.76ZM81.46 37.15C81.46 40.07 81.86 42.58 82.66 44.71C83.47 46.84 84.67 48.47 86.26 49.61C87.87 50.75 89.85 51.32 92.21 51.32C94.65 51.32 96.67 50.71 98.25 49.50C99.84 48.27 101.01 46.58 101.76 44.45C102.52 42.28 102.90 39.82 102.90 37.07C102.90 34.35 102.53 31.92 101.79 29.79C101.05 27.66 99.89 25.99 98.31 24.78C96.75 23.57 94.73 22.97 92.27 22.97C89.88 22.97 87.88 23.55 86.26 24.70C84.67 25.85 83.47 27.47 82.66 29.58C81.86 31.66 81.46 34.18 81.46 37.15Z" fill="white"/>
  <path d="M116.44 63.76V18.24H122.54V25.09H122.90C123.30 24.11 123.89 23.11 124.67 22.10C125.44 21.08 126.51 20.24 127.86 19.58C129.24 18.90 130.99 18.56 133.12 18.56C136.05 18.56 138.63 19.30 140.85 20.78C143.08 22.26 144.77 24.39 145.96 27.19C147.15 29.99 147.74 33.33 147.74 37.23C147.74 41.09 147.15 44.43 145.96 47.24C144.79 50.06 143.10 52.21 140.90 53.72C138.70 55.22 136.13 55.97 133.23 55.97C131.15 55.97 129.42 55.64 128.02 54.98C126.62 54.32 125.54 53.49 124.78 52.50C124.01 51.51 123.43 50.51 123.02 49.53H122.54V63.76H116.44ZM122.42 37.15C122.42 40.07 122.82 42.58 123.62 44.71C124.43 46.84 125.63 48.47 127.22 49.61C128.83 50.75 130.82 51.32 133.17 51.32C135.62 51.32 137.63 50.71 139.21 49.50C140.81 48.27 141.97 46.58 142.73 44.45C143.48 42.28 143.86 39.82 143.86 37.07C143.86 34.35 143.49 31.92 142.75 29.79C142.01 27.66 140.85 25.99 139.27 24.78C137.71 23.57 135.69 22.97 133.23 22.97C130.84 22.97 128.84 23.55 127.22 24.70C125.63 25.85 124.43 27.47 123.62 29.58C122.82 31.66 122.42 34.18 122.42 37.15Z" fill="white"/>
</svg> 