<svg width="1400" height="400" viewBox="0 0 1400 400" fill="none" xmlns="http://www.w3.org/2000/svg">
<path d="M1002.07 76.626C1002.7 76.728 1003.27 76.847 1003.79 77.269C1006.47 79.448 1006.79 85.638 1006.8 88.834C1006.84 98.467 1002.83 105.957 996.146 112.634C970.942 137.804 918.411 141.87 884.349 141.941C873.116 167.597 860.075 192.707 847.832 217.906C844.593 224.571 837.446 236.578 835.448 242.771L835.643 242.889C838.438 240.595 842.011 234.403 844.386 231.262C849.52 224.385 854.865 217.675 860.419 211.133C872.551 196.811 906.703 156.178 925.555 155.123C927.702 155.002 930.25 155.347 931.743 157.071C935.243 161.112 929.756 168.064 927.511 171.544C910.249 198.303 887.668 227.664 884.111 260.27C883.535 265.547 885.321 270.851 885.135 276.147C884.369 276.865 884.068 277.138 882.99 277.337C879.729 277.937 874.926 276.08 872.3 274.226C868.382 271.458 866.253 266.834 865.579 262.196C862.512 241.078 878.222 209.811 890.707 193.127L891.173 192.511C885.51 196.544 880.851 202.552 876.204 207.706C869.899 214.584 863.828 221.663 857.992 228.943C852.156 236.223 846.567 243.688 841.225 251.338C835.592 259.429 830.813 268.332 824.781 276.109C823.083 278.299 821.271 280.375 818.578 281.302C815.604 282.324 811.366 282.255 808.538 280.801C806.75 279.882 805.483 278.304 804.863 276.404C801.715 266.767 811.149 248.413 815.721 239.525C803.24 252.86 787.951 273.852 771.038 281.139C766.45 283.115 760.389 284.528 755.619 282.457C752.442 281.078 750.048 278.697 748.93 275.387C744.628 262.654 757.96 235.633 763.71 223.543C759.926 227.42 756.869 232.293 753.566 236.592C741.641 252.108 728.964 270.618 712.826 281.935C707.985 285.33 701.454 288.419 695.438 287.188C691.812 286.445 688.437 284.132 686.513 280.95C683.183 275.444 684.409 268.03 685.724 262.077C676.779 272.674 666.052 285.63 652.174 289.547C646.708 291.089 640.101 291.317 635.096 288.29C609.902 273.054 666.325 202.898 662.57 186.563C661.76 185.573 661.438 185.052 660.076 184.84C645.912 182.641 602.407 250.322 595.567 262.659C592.749 267.742 582.968 291.179 580.837 292.99C578.841 294.687 575.61 294.665 573.182 294.234C570.657 293.786 568.474 292.484 567.14 290.261C563.533 284.251 566.276 275.178 567.777 268.795C560.58 277.076 553.312 285.686 544.27 292.022C538.807 295.85 531.448 300.05 524.551 298.598C521.115 297.874 517.892 295.626 516.029 292.647C511.673 285.681 513.433 274.83 515.288 267.288C505.487 280.584 491.94 299.431 474.8 302.961C469.6 304.032 464.576 303.308 460.177 300.242C455.864 297.236 453.715 293.107 452.781 288.011C448.752 266.011 467.586 238.132 479.919 220.805C489.406 207.99 500.859 194.306 514.398 185.69C521.143 181.397 530.139 177.174 538.305 179.17C544.17 180.603 547 184.656 549.844 189.556C550.174 188.925 550.514 188.3 550.862 187.68C553.051 183.809 556.458 179.253 560.993 178.184C562.846 177.748 565.176 177.83 566.799 178.915C583.626 190.163 529.952 262.761 534.536 279.229C534.921 280.611 535.509 281.034 536.667 281.78C540.151 282.184 543.302 280.366 546.11 278.456C571.605 261.114 596.881 213.433 605.223 183.962C606.04 181.077 606.018 178.331 606.651 175.493C607.018 173.849 608.438 172.578 609.872 171.8C612.563 170.341 615.88 170.672 618.7 171.556C623.398 173.03 626.134 175.505 628.364 179.795C626.61 193.463 619.232 206.266 613.27 218.536C616.767 214.83 619.658 210.442 622.816 206.439C633.503 192.893 646.418 176.319 661.973 168.303C667.581 165.414 674.655 163.616 680.81 165.789C683.449 166.721 685.477 168.511 686.682 171.043C688.735 175.358 688.662 180.655 687.692 185.243C685.859 193.91 681.477 202.269 677.624 210.199C670.361 225.144 661.954 239.93 656.235 255.541C654.808 259.437 652.061 267.002 654.349 270.839C655.075 272.056 655.814 272.575 657.197 272.883C661.81 273.908 668.507 267.857 671.703 265.035C695.544 243.98 709.48 213.444 720.406 184.211C722.634 178.252 723.636 171.632 726.205 165.855C726.91 164.271 728.406 163.385 729.786 162.429L730.356 162.041C730.984 161.938 731.614 161.851 732.246 161.779C736.087 161.355 741.259 161.54 744.34 164.203C745.799 165.464 746.566 167.089 746.629 169.01C747.051 181.89 726.95 220.637 720.338 233.453C717.04 239.844 705.922 258.71 706.448 264.675C706.594 266.332 707.17 267.144 708.449 268.131C710.952 268.872 712.76 268.177 714.88 266.834C727.895 258.595 757.473 217.097 767.093 203.254C775.04 191.818 789.77 165.152 801.44 159.391C803.768 158.242 809.014 157.633 811.428 158.739C814.269 160.041 814.604 162.73 814.005 165.472C812.72 171.351 806.848 180.533 803.896 186.308C795.448 202.834 787.029 219.491 779.558 236.483C776.582 243.251 773.115 250.527 771.261 257.688C770.808 259.438 770.566 261.968 771.267 263.693C771.808 265.025 772.422 265.317 773.67 265.912C775.237 265.873 776.459 265.655 777.913 265.036C785.226 261.925 791.637 254.516 796.998 248.812C808.326 236.757 819.249 223.063 827.777 208.873C840.676 187.411 849.823 163.135 859.629 140.144C838.08 136.153 814.177 137.266 794.132 146.786C787.447 149.961 780.802 155.213 773.796 157.366C772.569 156.957 772.603 156.913 771.912 155.807C771.954 153.631 772.699 151.992 773.951 150.22C778.579 143.669 786.38 138.477 793.54 135.116C819.924 122.729 847.855 124.747 876.142 123.767C893.796 123.155 911.7 122.294 929.118 119.206C951.518 115.234 975.821 107.198 991.809 90.3C995.796 86.086 998.764 81.348 1002.07 76.626ZM483.421 286.761C505.899 274.599 533.624 233.135 540.796 208.929C541.956 205.013 543.727 198.91 541.742 195.092C541.016 193.695 539.812 192.673 538.327 192.148C537.031 191.689 535.342 191.893 534.009 192.022C512.658 200.957 488.95 237.981 480.232 259.512C477.891 265.294 472.855 278.32 475.711 284.421C475.789 284.584 475.874 284.742 475.968 284.895C476.062 285.048 476.164 285.196 476.274 285.339C476.384 285.482 476.5 285.618 476.624 285.748C476.748 285.879 476.879 286.002 477.015 286.119C477.153 286.236 477.295 286.345 477.443 286.446C477.592 286.548 477.745 286.642 477.903 286.727C478.062 286.812 478.224 286.889 478.39 286.958C478.557 287.026 478.727 287.085 478.899 287.136C480.322 287.544 482.036 287.169 483.421 286.761Z" fill="white"/>
<path d="M535.004 55.0724C539.13 54.8291 542.886 55.0625 546.12 57.9429C547.709 59.3582 549.292 61.7079 549.227 63.9326C549.187 65.2978 548.78 66.4728 547.69 67.3628C545.399 69.2338 542.739 68.4058 540.156 67.8398C537.516 68.9558 535.179 70.1548 532.881 71.8928C523.903 78.6838 517.454 88.5078 511.832 98.1038C504.104 111.297 497.822 125.246 491.423 139.112C480.707 162.334 470.43 185.748 460.59 209.356C452.988 227.124 445.505 244.942 438.141 262.812C432.915 275.614 427.504 288.7 423.451 301.927C421.455 308.439 419.679 314.93 418.901 321.714C418.442 325.708 418.477 329.719 417.905 333.706C417.37 334.51 417.03 334.903 416.15 335.364C413.832 336.577 409.733 336.28 407.363 335.361C403.174 333.736 399.791 330.591 398.045 326.443C396.033 321.665 396.38 316.33 397.233 311.334C399.626 297.331 405.519 283.448 410.735 270.281C416.433 255.873 422.223 241.502 428.105 227.168C430.878 220.449 433.961 213.862 436.562 207.074C426.043 210.961 414.958 214.045 404.173 217.116C397.994 218.875 391.31 220.382 385.435 222.993C380.615 230.013 376.983 238.337 373.03 245.912C365.013 261.277 356.895 276.833 347.076 291.137C333.589 310.784 311.264 339.956 286.728 344.335C278.644 345.778 271.063 344.222 264.363 339.439C263.993 339.175 263.63 338.903 263.273 338.622C262.916 338.34 262.567 338.05 262.224 337.751C261.882 337.452 261.548 337.145 261.221 336.83C260.894 336.514 260.575 336.19 260.264 335.859C259.953 335.527 259.651 335.188 259.357 334.842C259.063 334.496 258.778 334.142 258.502 333.782C258.225 333.421 257.958 333.054 257.7 332.68C257.442 332.306 257.193 331.925 256.954 331.539C256.715 331.152 256.486 330.76 256.266 330.363C256.047 329.965 255.837 329.562 255.638 329.154C255.439 328.745 255.249 328.332 255.07 327.915C254.892 327.497 254.723 327.075 254.565 326.649C254.407 326.223 254.26 325.793 254.124 325.36C253.987 324.926 253.862 324.49 253.747 324.05C253.632 323.61 253.529 323.168 253.436 322.724C253.343 322.278 253.262 321.831 253.191 321.383C252.791 318.666 252.904 315.612 254.661 313.358C255.469 312.322 255.606 312.062 256.886 311.869C259.476 313.233 261.198 315.734 263.338 317.687C268.639 322.527 275.519 323.225 282.31 322.953C283.374 322.685 284.434 322.399 285.488 322.095C316.301 313.098 344.238 252.23 359.25 225.151C347.281 227.591 332.009 226.307 320.74 221.441C312.577 217.916 305.131 211.666 301.888 203.195C296.792 189.884 301.113 173.761 306.908 161.427C323.736 125.607 365.406 88.6918 402.51 75.4138C412.185 71.9518 425.075 68.5078 434.861 73.4248C438.506 75.2558 441.155 78.2638 442.393 82.1628C443.939 87.0348 443.214 92.6298 442.052 97.5218C438.68 111.709 431.89 125.723 426.021 139.055C415.806 162.257 405.127 185.438 393.189 207.811C409.359 203.544 428.386 198.79 443.741 192.494C445.684 188.129 447.253 183.576 449.145 179.179C456.843 161.137 464.783 143.201 472.963 125.373C480.228 109.788 487.805 94.1208 498.291 80.3948C507.414 68.4528 519.551 57.128 535.004 55.0724ZM330.794 211.735C340.7 216.157 354.394 215.897 364.828 213.737C371.797 202.077 377.473 189.352 383.108 176.993C389.097 163.949 394.943 150.841 400.646 137.671C406.494 124.059 413.606 109.726 417.331 95.3438C417.864 93.2888 418.009 90.7868 417.561 88.7038C417.231 87.1688 416.561 85.7588 415.076 85.0318C414.075 84.5408 412.869 84.5328 411.781 84.6238C386.425 87.5388 363.661 109.6 348.441 128.819C334.924 145.889 317.674 173.085 320.383 195.736C321.055 201.357 323.39 206.47 327.981 209.926C328.875 210.6 329.823 211.181 330.794 211.735Z" fill="white"/>
<path d="M1062.12 113.529C1066.45 113.249 1070.58 113.108 1074.75 114.601C1078.02 115.773 1080.98 117.885 1082.36 121.171C1083.43 123.738 1083.6 127.09 1082.53 129.666C1082.27 129.885 1082.07 130.21 1081.75 130.322C1080.35 130.811 1067.96 127.891 1064.61 128.05C1061.51 128.197 1058.18 128.824 1055.3 129.968C1033.96 138.438 995.8 172.995 980.105 190.547C987.292 200.77 981.426 230.906 983.603 244.535C983.985 246.93 984.83 251.19 987.221 252.459C988.827 253.311 991.359 252.992 993.023 252.482C1003.75 249.196 1017.97 230.799 1023.79 221.556C1028.44 214.167 1032.24 206.201 1036.17 198.412C1040.6 189.625 1045.12 180.85 1049.15 171.871C1052.11 165.279 1054.23 157.987 1057.64 151.657C1059.29 148.593 1062.12 146.777 1065.46 145.947C1068.57 145.173 1072.72 145.13 1075.51 146.957C1077.66 148.376 1079.16 151.075 1078.98 153.692C1078.64 158.722 1073.67 167.548 1071.32 172.398C1065.17 185.029 1058.94 197.623 1052.64 210.181C1048.54 218.438 1044.01 226.762 1040.9 235.456C1039.88 238.327 1037.97 243.608 1039.08 246.542C1039.58 247.88 1039.86 247.905 1041.11 248.35C1053.61 246.454 1090.15 191.279 1098.18 178.759C1103.04 171.164 1117.67 144.023 1124.17 140.559C1127.52 138.774 1132.75 138.3 1136.34 139.592C1137.81 140.122 1139.09 141.048 1139.63 142.582C1140.43 144.842 1139.3 147.702 1138.52 149.84C1135.17 158.971 1130.45 167.682 1126.13 176.39C1117.44 193.908 1108.16 211.832 1101.39 230.186C1099.78 234.559 1096.72 242.473 1099.29 246.828C1099.43 247.069 1099.6 247.294 1099.78 247.503C1099.97 247.712 1100.18 247.902 1100.4 248.073C1100.62 248.243 1100.86 248.39 1101.11 248.515C1101.36 248.64 1101.62 248.74 1101.9 248.815C1111.09 251.448 1128.05 232.327 1133.39 225.953C1136.32 222.455 1140.51 215.415 1144.56 213.418C1145.45 212.98 1145.07 213.062 1146.07 213.434C1146.75 216.283 1145.13 219.436 1144.1 222.052C1138.08 236.403 1120.78 255.274 1106.93 262.577C1101.38 265.505 1094.43 267.58 1088.27 265.477C1084.15 264.072 1080.74 260.854 1078.94 256.917C1071.28 240.236 1089.1 213.085 1095.23 197.331C1090.84 202.886 1087.28 209.855 1083.36 215.81C1076.61 225.885 1069.26 235.508 1061.32 244.677C1053.4 253.75 1042.74 267.149 1029.8 267.762C1025.67 267.958 1021.18 266.774 1018.2 263.785C1013.58 259.156 1014.18 252.37 1014.36 246.389C1012.38 249.165 1010.02 251.735 1007.69 254.226C1000.36 262.057 991.017 271.135 979.545 271.295C975.154 271.356 970.81 270.091 967.667 266.905C956.091 255.169 963.327 222.676 963.49 206.942C952.112 219.079 943.451 231.806 936.079 246.66C934.278 250.291 932.556 253.945 931.209 257.772C929.729 261.981 928.592 267.243 926.332 271.066C925.417 272.614 924.109 273.805 922.513 274.626C922.177 274.796 921.833 274.948 921.481 275.083C921.13 275.218 920.772 275.334 920.408 275.432C920.045 275.53 919.677 275.609 919.305 275.67C918.933 275.73 918.559 275.771 918.183 275.793C917.807 275.815 917.431 275.818 917.055 275.801C916.679 275.784 916.304 275.749 915.931 275.694C915.559 275.639 915.191 275.565 914.825 275.472C914.46 275.379 914.101 275.268 913.747 275.138C911.175 274.207 908.88 272.887 907.772 270.268C906.562 267.406 906.894 263.949 907.651 261.023C910.683 249.304 916.779 237.49 922.006 226.612L941.323 187.401C945.588 178.926 949.048 170.089 952.999 161.475C954.853 157.433 957.462 153.571 961.877 152.114C964.972 151.093 969.232 151.496 972.111 153.005C974.098 154.047 975.39 155.893 975.884 158.061C977.638 165.739 962.284 192.759 957.83 200.17C966.452 192.002 973.981 182.33 981.992 173.545C1000.97 152.731 1033.92 119.13 1062.12 113.529Z" fill="white"/>
</svg>
