<svg xmlns="http://www.w3.org/2000/svg" width="180" height="100" viewBox="0 0 180 100" fill="none">
  <path d="M23.7 63.76V18.24H42.94C46.91 18.24 50.09 18.84 52.48 20.04C54.87 21.22 56.59 22.84 57.63 24.92C58.70 26.96 59.23 29.28 59.23 31.88C59.23 34.40 58.70 36.70 57.63 38.78C56.56 40.86 54.82 42.50 52.40 43.68C50.02 44.86 46.86 45.45 42.94 45.45H29.68V63.76H23.7ZM29.68 40.24H42.90C45.44 40.24 47.48 39.84 49.03 39.05C50.60 38.23 51.74 37.09 52.45 35.63C53.15 34.16 53.51 32.51 53.51 30.67C53.51 28.83 53.15 27.18 52.45 25.72C51.74 24.22 50.60 23.05 49.03 22.21C47.48 21.35 45.44 20.92 42.90 20.92H29.68V40.24Z" fill="white"/>
  <path d="M64.83 63.76V18.24H87.56C90.56 18.24 93.09 18.74 95.14 19.72C97.20 20.68 98.73 21.98 99.73 23.63C100.74 25.26 101.25 27.10 101.25 29.15C101.25 30.95 100.94 32.46 100.33 33.70C99.71 34.93 98.95 35.90 98.04 36.62C97.14 37.31 96.28 37.78 95.47 38.05V38.53C96.36 38.64 97.39 39.03 98.55 39.71C99.71 40.38 100.70 41.41 101.51 42.78C102.32 44.16 102.73 45.94 102.73 48.13C102.73 50.31 102.18 52.28 101.09 54.07C100.03 55.86 98.39 57.28 96.19 58.33C93.99 59.37 91.17 59.89 87.75 59.89C86.15 59.89 84.48 59.81 82.73 59.64C81.00 59.51 79.48 59.34 78.16 59.15C76.84 58.93 75.91 58.74 75.37 58.57V63.76H64.83ZM70.86 53.77C72.65 54.02 74.57 54.15 76.63 54.15C79.43 54.15 81.62 53.61 83.20 52.52C84.77 51.42 85.56 49.86 85.56 47.84C85.56 46.22 85.08 44.92 84.13 43.96C83.17 42.97 81.98 42.27 80.56 41.86C79.13 41.42 77.64 41.20 76.08 41.20H70.81V53.77H70.86ZM70.86 37.07H75.45C77.02 37.07 78.45 36.86 79.75 36.43C81.05 36.00 82.09 35.34 82.88 34.44C83.67 33.53 84.06 32.34 84.06 30.85C84.06 29.16 83.39 27.78 82.04 26.71C80.74 25.61 78.75 25.06 76.08 25.06C75.22 25.06 74.19 25.08 73.00 25.14C71.84 25.19 71.19 25.22 71.08 25.22V37.07H70.86Z" fill="white"/>
  <path d="M105.84 63.76V18.24H111.94V63.76H105.84Z" fill="white"/>
  <path d="M120.51 63.76V18.24H129.57L141.71 45.25H142.19L154.38 18.24H163.42V63.76H158.04V26.15H157.56L145.92 51.53H137.99L126.35 26.15H125.88V63.76H120.51Z" fill="white"/>
</svg> 