<svg xmlns="http://www.w3.org/2000/svg" width="180" height="100" viewBox="0 0 180 100" fill="none">
  <path d="M1.91 63.76V18.24H7.67V37.55H27.96V18.24H33.71V63.76H27.96V42.70H7.67V63.76H1.91Z" fill="white"/>
  <path d="M42.63 63.76V18.24H48.72V63.76H42.63Z" fill="white"/>
  <path d="M55.78 63.76V18.24H74.11C78.59 18.24 82.29 19.40 85.19 21.71C88.10 24.03 89.56 27.21 89.56 31.26C89.56 33.94 88.86 36.26 87.46 38.21C86.06 40.15 84.04 41.63 81.40 42.65C78.75 43.65 75.67 44.14 72.13 44.14H62.00V63.76H55.78ZM62.00 38.93H72.19C75.19 38.93 77.48 38.21 79.05 36.78C80.62 35.35 81.40 33.44 81.40 31.07C81.40 28.69 80.62 26.81 79.05 25.44C77.53 24.06 75.16 23.37 71.95 23.37H62.00V38.93Z" fill="white"/>
  <path d="M95.87 63.76V18.24H101.97V63.76H95.87Z" fill="white"/>
</svg> 